<svg width="32" height="22" viewBox="0 0 32 22" fill="none" xmlns="http://www.w3.org/2000/svg">
<rect x="0.5" y="0.5" width="31" height="21" rx="1.5" fill="#FFFDFA"/>
<rect x="0.5" y="0.5" width="31" height="21" rx="1.5" stroke="black"/>
<path d="M8.5363 7.32843C8.81888 6.97082 9.01064 6.49067 8.96007 6C8.54641 6.02081 8.04161 6.27612 7.74936 6.634C7.48695 6.94048 7.2547 7.44074 7.31525 7.91084C7.7796 7.95159 8.24353 7.676 8.5363 7.32843Z" fill="black"/>
<path d="M8.95474 8.00281C8.28039 7.96217 7.70702 8.39004 7.38498 8.39004C7.06277 8.39004 6.56962 8.02329 6.03624 8.03317C5.34201 8.04349 4.69785 8.44063 4.34556 9.07226C3.62096 10.3358 4.15434 12.2102 4.85898 13.2393C5.20116 13.7484 5.61356 14.309 6.15695 14.2889C6.67036 14.2685 6.8716 13.9525 7.49568 13.9525C8.1193 13.9525 8.30057 14.2889 8.84405 14.2787C9.40765 14.2685 9.76001 13.7693 10.1022 13.2597C10.4947 12.6793 10.6554 12.1189 10.6655 12.0881C10.6554 12.0779 9.57876 11.66 9.56878 10.4069C9.55861 9.35772 10.4141 8.85865 10.4544 8.8277C9.97126 8.1048 9.21643 8.02329 8.95474 8.00281Z" fill="black"/>
<path d="M14.825 6.58288C16.2907 6.58288 17.3113 7.60508 17.3113 9.09333C17.3113 10.5869 16.2697 11.6144 14.7882 11.6144H13.1654V14.2255H11.9929V6.58288L14.825 6.58288ZM13.1654 10.6187H14.5108C15.5316 10.6187 16.1126 10.0626 16.1126 9.09865C16.1126 8.13478 15.5316 7.58394 14.516 7.58394H13.1654V10.6187Z" fill="black"/>
<path d="M17.617 12.6415C17.617 11.6669 18.3551 11.0685 19.6639 10.9943L21.1714 10.9043V10.4754C21.1714 9.85567 20.7578 9.48493 20.067 9.48493C19.4125 9.48493 19.0041 9.80265 18.9048 10.3006H17.8369C17.8997 9.2942 18.7477 8.55273 20.1088 8.55273C21.4436 8.55273 22.2968 9.26774 22.2968 10.3853V14.2251H21.2132V13.3088H21.1871C20.8679 13.9285 20.1716 14.3204 19.4492 14.3204C18.3708 14.3204 17.617 13.6425 17.617 12.6415ZM21.1714 12.1384V11.6988L19.8155 11.7835C19.1402 11.8312 18.7582 12.1331 18.7582 12.6098C18.7582 13.097 19.156 13.4148 19.7632 13.4148C20.5536 13.4148 21.1714 12.8639 21.1714 12.1384Z" fill="black"/>
<path d="M23.3202 16.2752V15.3484C23.4038 15.3695 23.5922 15.3695 23.6865 15.3695C24.2099 15.3695 24.4927 15.1471 24.6653 14.5751C24.6653 14.5645 24.7649 14.2362 24.7649 14.2308L22.7757 8.65379H24.0005L25.3931 13.1875H25.4139L26.8065 8.65379H28L25.9374 14.5168C25.4664 15.8674 24.922 16.3017 23.7808 16.3017C23.6865 16.3017 23.4038 16.2911 23.3202 16.2752Z" fill="black"/>
</svg>
