<svg width="24" height="24" viewBox="0 0 24 24" fill="none" xmlns="http://www.w3.org/2000/svg">
<path fill="#000" d="M17.9987 5.96329C17.7522 5.73468 17.427 5.60788 17.15 5.52811C16.8547 5.44302 16.5168 5.385 16.1688 5.34437C15.4715 5.26294 14.6539 5.2426 13.8886 5.24921C13.119 5.25585 12.3819 5.29005 11.8385 5.32239C11.5664 5.3386 11.3418 5.3544 11.1847 5.3662C11.1061 5.3721 11.0444 5.377 11.002 5.38045L10.9532 5.3845L10.9402 5.3856L10.9352 5.38603C10.5225 5.42198 10.2172 5.78564 10.2531 6.19829C10.2891 6.61092 10.6533 6.91624 11.0659 6.88033L11.0684 6.88011L11.0793 6.87919L11.1238 6.8755C11.1633 6.87229 11.2218 6.86763 11.297 6.86198C11.4475 6.85068 11.6643 6.83542 11.9277 6.81974C12.4553 6.78833 13.1655 6.75551 13.9016 6.74915C14.642 6.74275 15.3882 6.7634 15.9948 6.83424C16.0289 6.83822 16.0623 6.84233 16.095 6.84657L5.46991 17.4716C5.17702 17.7645 5.17702 18.2394 5.46991 18.5323C5.76281 18.8252 6.23768 18.8252 6.53057 18.5323L17.1581 7.90476C17.1599 7.91912 17.1616 7.93361 17.1633 7.94826C17.2336 8.54808 17.2546 9.29852 17.2488 10.0485C17.2431 10.7938 17.2112 11.5176 17.1806 12.0566C17.1653 12.3256 17.1504 12.5475 17.1393 12.7017C17.1338 12.7787 17.1292 12.8388 17.1261 12.8793L17.1225 12.9251L17.1213 12.9396C17.087 13.3524 17.3938 13.7148 17.8066 13.7491C18.2194 13.7834 18.5819 13.4761 18.6162 13.0633L18.6166 13.0587L18.6176 13.0455L18.6216 12.9957C18.6249 12.9523 18.6297 12.8892 18.6355 12.809C18.647 12.6485 18.6624 12.4192 18.6782 12.1417C18.7097 11.5878 18.7428 10.8379 18.7488 10.06C18.7547 9.28684 18.7341 8.46463 18.6531 7.77367C18.6128 7.4294 18.555 7.09492 18.4691 6.80582C18.3909 6.54236 18.2583 6.20398 17.9987 5.96329Z"/>
</svg>
