<svg width="20" height="20" viewBox="0 0 20 20" fill="none" xmlns="http://www.w3.org/2000/svg">
<path fill-rule="evenodd" clip-rule="evenodd" d="M2.94196 2.05806C2.69789 1.81398 2.30215 1.81398 2.05808 2.05806C1.814 2.30213 1.814 2.69786 2.05808 2.94194L4.66224 5.5461C3.20595 6.66853 2.13256 8.00736 1.53786 8.84125L1.49351 8.90308C1.28255 9.1965 1.04169 9.5315 1.04169 10C1.04169 10.4685 1.28255 10.8035 1.49351 11.0969L1.53786 11.1587C2.12607 11.9836 3.17763 13.2952 4.60028 14.4058C6.02165 15.5155 7.85789 16.4583 9.99998 16.4583C11.6219 16.4583 13.0686 15.9174 14.2908 15.1747L17.0581 17.9419C17.3021 18.186 17.6979 18.186 17.942 17.9419C18.1861 17.6978 18.1861 17.3022 17.942 17.0581L14.8271 13.9432C14.8216 13.9374 14.8159 13.9317 14.8101 13.9262L6.07285 5.18894C6.06726 5.18314 6.06158 5.17746 6.05581 5.17191L2.94196 2.05806ZM5.55433 6.43819C4.17181 7.47188 3.1338 8.75625 2.55558 9.56708C2.41948 9.75791 2.3547 9.85108 2.31609 9.92525C2.29155 9.97241 2.29161 9.98533 2.29168 9.998L2.29169 10L2.29168 10.002C2.29161 10.0147 2.29155 10.0276 2.31609 10.0747C2.3547 10.1489 2.41948 10.2421 2.55558 10.4329C3.10575 11.2044 4.077 12.4115 5.36949 13.4206C6.66325 14.4306 8.23447 15.2083 9.99998 15.2083C11.2289 15.2083 12.3634 14.8319 13.3773 14.2612L11.692 12.5758C11.1956 12.9217 10.5916 13.125 9.94081 13.125C8.24761 13.125 6.87502 11.7524 6.87502 10.0592C6.87502 9.40841 7.0783 8.80433 7.42416 8.30802L5.55433 6.43819ZM8.33215 9.216C8.19971 9.46791 8.12502 9.75466 8.12502 10.0592C8.12502 11.0621 8.93798 11.875 9.94081 11.875C10.2454 11.875 10.5321 11.8003 10.7841 11.6679L8.33215 9.216ZM9.99998 4.79166C9.31548 4.79166 8.66165 4.90823 8.04169 5.10964C7.7134 5.21629 7.3608 5.03661 7.25416 4.70833C7.14751 4.38004 7.32719 4.02745 7.65547 3.92081C8.3874 3.68304 9.17156 3.54166 9.99998 3.54166C12.1421 3.54166 13.9784 4.48451 15.3997 5.59415C16.8224 6.7048 17.874 8.01645 18.4621 8.84125L18.5066 8.90308C18.7175 9.1965 18.9583 9.5315 18.9583 10C18.9583 10.4685 18.7175 10.8035 18.5066 11.0969L18.4621 11.1587C18.0589 11.7242 17.4415 12.5133 16.6395 13.3094C16.3945 13.5526 15.9987 13.5511 15.7556 13.3061C15.5124 13.0611 15.5139 12.6654 15.7589 12.4222C16.498 11.6887 17.0703 10.9576 17.4445 10.4329C17.5806 10.2421 17.6453 10.1489 17.684 10.0747C17.7085 10.0276 17.7084 10.0147 17.7084 10.002L17.7083 10L17.7084 9.998C17.7084 9.98533 17.7085 9.97241 17.684 9.92525C17.6453 9.85108 17.5806 9.75791 17.4445 9.56708C16.8943 8.79558 15.9231 7.58848 14.6306 6.57945C13.3368 5.56942 11.7656 4.79166 9.99998 4.79166Z" fill="#1C2024"/>
</svg>
