<svg width="20" height="20" viewBox="0 0 20 20" fill="none" xmlns="http://www.w3.org/2000/svg">
<path fill-rule="evenodd" clip-rule="evenodd" d="M9.99999 13.1248C8.2741 13.1248 6.87499 11.7257 6.87499 9.99984C6.87499 8.27395 8.2741 6.87484 9.99999 6.87484C11.7259 6.87484 13.125 8.27395 13.125 9.99984C13.125 11.7257 11.7259 13.1248 9.99999 13.1248ZM8.12499 9.99984C8.12499 11.0354 8.96446 11.8748 9.99999 11.8748C11.0355 11.8748 11.875 11.0354 11.875 9.99984C11.875 8.9643 11.0355 8.12484 9.99999 8.12484C8.96446 8.12484 8.12499 8.9643 8.12499 9.99984Z" fill="#1C2024"/>
<path fill-rule="evenodd" clip-rule="evenodd" d="M9.99999 3.5415C7.85786 3.5415 6.02162 4.48434 4.60025 5.59399C3.1776 6.70464 2.12604 8.01629 1.53783 8.8411L1.49348 8.90295C1.28252 9.19635 1.04166 9.53133 1.04166 9.99984C1.04166 10.4683 1.28252 10.8033 1.49348 11.0967L1.53783 11.1586C2.12604 11.9834 3.1776 13.295 4.60025 14.4057C6.02162 15.5153 7.85786 16.4582 9.99999 16.4582C12.1421 16.4582 13.9784 15.5153 15.3997 14.4057C16.8224 13.295 17.8739 11.9834 18.4621 11.1586L18.5065 11.0967C18.7175 10.8033 18.9583 10.4683 18.9583 9.99984C18.9583 9.53133 18.7175 9.19635 18.5065 8.90295L18.4621 8.8411C17.8739 8.01629 16.8224 6.70463 15.3997 5.59399C13.9784 4.48434 12.1421 3.5415 9.99999 3.5415ZM2.55555 9.56688C3.10572 8.79541 4.07697 7.58832 5.36946 6.57929C6.66322 5.56927 8.23444 4.7915 9.99999 4.7915C11.7655 4.7915 13.3368 5.56926 14.6305 6.57929C15.923 7.58832 16.8943 8.79541 17.4444 9.56688C17.5805 9.75773 17.6453 9.85092 17.6839 9.92511C17.7085 9.97226 17.7084 9.98519 17.7083 9.99784L17.7083 9.99984L17.7083 10.0018C17.7084 10.0145 17.7085 10.0274 17.6839 10.0746C17.6453 10.1488 17.5805 10.2419 17.4444 10.4328C16.8943 11.2043 15.923 12.4114 14.6305 13.4204C13.3368 14.4304 11.7655 15.2082 9.99999 15.2082C8.23444 15.2082 6.66322 14.4304 5.36946 13.4204C4.07697 12.4114 3.10572 11.2043 2.55555 10.4328C2.41945 10.2419 2.35467 10.1488 2.31606 10.0746C2.29151 10.0274 2.29158 10.0145 2.29165 10.0018L2.29166 9.99984L2.29165 9.99784C2.29158 9.98519 2.29151 9.97226 2.31606 9.92511C2.35467 9.85092 2.41945 9.75773 2.55555 9.56688Z" fill="#1C2024"/>
</svg>
