<svg width="20" height="20" viewBox="0 0 20 20" fill="none" xmlns="http://www.w3.org/2000/svg">
<path fill-rule="evenodd" clip-rule="evenodd" d="M1.04166 9.99984C1.04166 14.9474 5.05244 18.9582 9.99999 18.9582C14.9475 18.9582 18.9583 14.9474 18.9583 9.99984C18.9583 5.05229 14.9475 1.0415 9.99999 1.0415C5.05244 1.0415 1.04166 5.05229 1.04166 9.99984ZM9.73489 9.18922C9.94076 9.2169 10.2255 9.29099 10.4672 9.53265C10.7089 9.77431 10.783 10.0591 10.8106 10.265C10.8336 10.4355 10.8334 10.6338 10.8333 10.8004L10.8333 14.1665C10.8333 14.6268 10.4602 14.9999 9.99999 14.9999C9.53975 14.9999 9.16666 14.6268 9.16666 14.1665V10.8332C8.70642 10.8332 8.33332 10.4601 8.33332 9.99987C8.33332 9.53963 8.70642 9.16653 9.16666 9.16653L9.19948 9.16652C9.36604 9.16641 9.56434 9.16629 9.73489 9.18922ZM9.99619 5.83317C9.53801 5.83317 9.16658 6.20627 9.16658 6.6665C9.16658 7.12674 9.53801 7.49984 9.99619 7.49984H10.0036C10.4618 7.49984 10.8333 7.12674 10.8333 6.6665C10.8333 6.20627 10.4618 5.83317 10.0036 5.83317H9.99619Z" style={{ fill: "var(--background-brand)" }}/>
</svg>
