<svg width="24" height="24" viewBox="0 0 24 24" fill="none" xmlns="http://www.w3.org/2000/svg">
<path fill-rule="evenodd" clip-rule="evenodd" d="M11.9991 6.75C9.65193 6.75 7.74914 8.65279 7.74914 11C7.74914 13.3472 9.65193 15.25 11.9991 15.25C14.3464 15.25 16.2491 13.3472 16.2491 11C16.2491 8.65279 14.3464 6.75 11.9991 6.75ZM9.24914 11C9.24914 9.48122 10.4804 8.25 11.9991 8.25C13.5179 8.25 14.7491 9.48122 14.7491 11C14.7491 12.5188 13.5179 13.75 11.9991 13.75C10.4804 13.75 9.24914 12.5188 9.24914 11Z" fill="#1C2024"/>
<path fill-rule="evenodd" clip-rule="evenodd" d="M12.0002 1.25C8.17403 1.25 4.52371 3.51303 2.99579 7.08468C1.57384 10.4086 2.34362 13.2373 3.94637 15.6595C5.26043 17.6454 7.177 19.4178 8.90608 21.0168C9.23575 21.3217 9.55875 21.6204 9.86931 21.9129L9.87097 21.9145C10.446 22.4528 11.2098 22.75 12.0002 22.75C12.7906 22.75 13.5544 22.4528 14.1294 21.9145C14.4229 21.6396 14.7272 21.3592 15.0376 21.0732C16.7855 19.4628 18.7291 17.672 20.0569 15.6609C21.6577 13.2362 22.4248 10.4045 21.0046 7.08468C19.4767 3.51303 15.8264 1.25 12.0002 1.25ZM4.3749 7.67465C5.65372 4.68528 8.74081 2.75 12.0002 2.75C15.2596 2.75 18.3467 4.68528 19.6255 7.67465C20.7975 10.4144 20.2061 12.7124 18.8051 14.8344C17.5875 16.6786 15.804 18.3242 14.0508 19.9418C13.7331 20.235 13.4164 20.5272 13.1042 20.8195C12.8119 21.0932 12.4164 21.25 12.0002 21.25C11.5843 21.25 11.1891 21.0934 10.8968 20.8201C10.5644 20.5069 10.2267 20.1942 9.88805 19.8806C8.15718 18.2778 6.40189 16.6523 5.19731 14.8318C3.79494 12.7124 3.20135 10.4179 4.3749 7.67465Z" fill="#1C2024"/>
</svg>
