<svg width="32" height="22" viewBox="0 0 32 22" fill="none" xmlns="http://www.w3.org/2000/svg">
<rect width="32" height="22" rx="2" fill="#1434CB"/>
<path d="M13.1125 7.2371L9.97034 14.7338H7.92035L6.37411 8.75109C6.28024 8.38259 6.19861 8.24759 5.91311 8.09234C5.44699 7.83947 4.67725 7.60222 4 7.45497L4.046 7.2371H7.34586C7.76648 7.2371 8.1446 7.5171 8.2401 8.00147L9.05672 12.3395L11.075 7.23697H13.1125V7.2371ZM21.1447 12.2862C21.1529 10.3076 18.4087 10.1986 18.4276 9.31471C18.4334 9.04571 18.6895 8.75971 19.2502 8.68672C19.528 8.65034 20.2937 8.62259 21.162 9.02221L21.5027 7.43247C21.036 7.2631 20.4357 7.1001 19.6887 7.1001C17.7718 7.1001 16.4228 8.11909 16.4114 9.57821C16.3991 10.6575 17.3743 11.2597 18.1091 11.6183C18.8649 11.9856 19.1185 12.2216 19.1157 12.5501C19.1103 13.0529 18.5128 13.2749 17.9544 13.2837C16.9797 13.2987 16.4141 13.0199 15.9632 12.8103L15.6117 14.4527C16.0648 14.6606 16.9012 14.8419 17.7683 14.8511C19.8057 14.8511 21.1384 13.8447 21.1447 12.2862ZM26.2064 14.7338H28L26.4344 7.2371H24.7789C24.4066 7.2371 24.0926 7.45385 23.9536 7.78709L21.0435 14.7338H23.0799L23.4841 13.6141H25.9723L26.2064 14.7338ZM24.0425 12.0776L25.0633 9.26284L25.6508 12.0776H24.0425ZM15.8833 7.2371L14.2797 14.7338H12.3405L13.9447 7.2371L15.8833 7.2371Z" fill="white"/>
</svg>
